<?xml version="1.0" encoding="UTF-8" standalone="no"?>
<!-- Created with Inkscape (http://www.inkscape.org/) -->

<svg
   xmlns:dc="http://purl.org/dc/elements/1.1/"
   xmlns:cc="http://creativecommons.org/ns#"
   xmlns:rdf="http://www.w3.org/1999/02/22-rdf-syntax-ns#"
   xmlns:svg="http://www.w3.org/2000/svg"
   xmlns="http://www.w3.org/2000/svg"
   xmlns:sodipodi="http://sodipodi.sourceforge.net/DTD/sodipodi-0.dtd"
   xmlns:inkscape="http://www.inkscape.org/namespaces/inkscape"
   width="297mm"
   height="74.055mm"
   viewBox="0 0 297 74.055"
   version="1.1"
   id="svg8"
   inkscape:version="0.92.4 (5da689c313, 2019-01-14)"
   sodipodi:docname="miubeta_.svg">
  <defs
     id="defs2">
    <clipPath
       id="clipPath3733"
       clipPathUnits="userSpaceOnUse">
      <path
         inkscape:connector-curvature="0"
         id="path3731"
         d="M 0,595.28 H 841.89 V 0 H 0 Z" />
    </clipPath>
    <clipPath
       id="clipPath3749"
       clipPathUnits="userSpaceOnUse">
      <path
         inkscape:connector-curvature="0"
         id="path3747"
         d="M 0,595.28 H 841.89 V 0 H 0 Z" />
    </clipPath>
    <clipPath
       id="clipPath3761"
       clipPathUnits="userSpaceOnUse">
      <path
         inkscape:connector-curvature="0"
         id="path3759"
         d="m 347.552,326.471 c 6.665,-0.317 13.333,-0.669 20.005,-1.056 v 0 28.342 c 0,6.426 -3.531,9.964 -9.934,9.964 v 0 l -10.071,0.051 z" />
    </clipPath>
    <linearGradient
       id="linearGradient3777"
       spreadMethod="pad"
       gradientTransform="matrix(-1.53e-5,387.97928,387.97928,1.53e-5,357.55518,92.442383)"
       gradientUnits="userSpaceOnUse"
       y2="0"
       x2="1"
       y1="0"
       x1="0">
      <stop
         id="stop3771"
         offset="0"
         style="stop-opacity:1;stop-color:#ffffff" />
      <stop
         id="stop3773"
         offset="0.41503764"
         style="stop-opacity:0;stop-color:#ffffff" />
      <stop
         id="stop3775"
         offset="1"
         style="stop-opacity:0;stop-color:#ffffff" />
    </linearGradient>
    <mask
       id="mask3779"
       height="1"
       width="1"
       y="0"
       x="0"
       maskUnits="userSpaceOnUse">
      <g
         id="g3789">
        <g
           id="g3787">
          <g
             id="g3785">
            <g
               id="g3783">
              <path
                 inkscape:connector-curvature="0"
                 id="path3781"
                 style="fill:url(#linearGradient3777);stroke:none"
                 d="M -32768,32767 H 32767 V -32767 H -32768 Z" />
            </g>
          </g>
        </g>
      </g>
    </mask>
    <linearGradient
       id="linearGradient3801"
       spreadMethod="pad"
       gradientTransform="matrix(-1.53e-5,387.97928,387.97928,1.53e-5,357.55518,92.442383)"
       gradientUnits="userSpaceOnUse"
       y2="0"
       x2="1"
       y1="0"
       x1="0">
      <stop
         id="stop3795"
         offset="0"
         style="stop-opacity:1;stop-color:#ffffff" />
      <stop
         id="stop3797"
         offset="0.41503764"
         style="stop-opacity:1;stop-color:#ffffff" />
      <stop
         id="stop3799"
         offset="1"
         style="stop-opacity:1;stop-color:#ffffff" />
    </linearGradient>
    <clipPath
       id="clipPath3811"
       clipPathUnits="userSpaceOnUse">
      <path
         inkscape:connector-curvature="0"
         id="path3809"
         d="m 645.519,347.081 c -11.031,-11.034 -16.626,-24.554 -16.626,-40.192 v 0 c 0,-2.132 0.117,-4.218 0.324,-6.271 v 0 c 6.765,-0.389 13.561,-0.747 20.39,-1.08 v 0 c -0.466,2.367 -0.705,4.814 -0.705,7.351 v 0 c 0,10.071 3.638,18.817 10.804,25.995 v 0 c 7.283,7.287 15.774,10.83 25.963,10.83 v 0 c 10.118,0 18.577,-3.543 25.858,-10.83 v 0 c 7.169,-7.178 10.808,-15.924 10.808,-25.995 v 0 -9.651 c 6.629,-0.089 13.304,-0.133 20.005,-0.145 v 0 9.811 c 0,15.632 -5.592,29.153 -16.616,40.183 v 0 c -11.034,11.04 -24.512,16.634 -40.055,16.634 v 0 c -15.615,0 -29.126,-5.601 -40.15,-16.64" />
    </clipPath>
    <linearGradient
       id="linearGradient3827"
       spreadMethod="pad"
       gradientTransform="matrix(-1.53e-5,387.97345,387.97345,1.53e-5,685.61621,92.447266)"
       gradientUnits="userSpaceOnUse"
       y2="0"
       x2="1"
       y1="0"
       x1="0">
      <stop
         id="stop3821"
         offset="0"
         style="stop-opacity:1;stop-color:#ffffff" />
      <stop
         id="stop3823"
         offset="0.41503764"
         style="stop-opacity:0;stop-color:#ffffff" />
      <stop
         id="stop3825"
         offset="1"
         style="stop-opacity:0;stop-color:#ffffff" />
    </linearGradient>
    <mask
       id="mask3829"
       height="1"
       width="1"
       y="0"
       x="0"
       maskUnits="userSpaceOnUse">
      <g
         id="g3839">
        <g
           id="g3837">
          <g
             id="g3835">
            <g
               id="g3833">
              <path
                 inkscape:connector-curvature="0"
                 id="path3831"
                 style="fill:url(#linearGradient3827);stroke:none"
                 d="M -32768,32767 H 32767 V -32767 H -32768 Z" />
            </g>
          </g>
        </g>
      </g>
    </mask>
    <linearGradient
       id="linearGradient3851"
       spreadMethod="pad"
       gradientTransform="matrix(-1.53e-5,387.97345,387.97345,1.53e-5,685.61621,92.447266)"
       gradientUnits="userSpaceOnUse"
       y2="0"
       x2="1"
       y1="0"
       x1="0">
      <stop
         id="stop3845"
         offset="0"
         style="stop-opacity:1;stop-color:#ffffff" />
      <stop
         id="stop3847"
         offset="0.41503764"
         style="stop-opacity:1;stop-color:#ffffff" />
      <stop
         id="stop3849"
         offset="1"
         style="stop-opacity:1;stop-color:#ffffff" />
    </linearGradient>
    <clipPath
       id="clipPath3861"
       clipPathUnits="userSpaceOnUse">
      <path
         inkscape:connector-curvature="0"
         id="path3859"
         d="M 0,595.28 H 841.89 V 0 H 0 Z" />
    </clipPath>
    <clipPath
       id="clipPath3873"
       clipPathUnits="userSpaceOnUse">
      <path
         inkscape:connector-curvature="0"
         id="path3871"
         d="m 171.865,349.437 c -7.989,9.48 -18.429,14.284 -31.078,14.284 v 0 c -7.896,0 -15.164,-2.07 -21.649,-6.162 v 0 c -1.215,4.006 -4.496,6.162 -9.536,6.162 v 0 H 99.55 v -21.343 -31.184 c 6.692,1.274 13.36,2.458 20.007,3.57 v 0 7.793 c 0,5.877 2.032,10.762 6.214,14.942 v 0 c 4.182,4.181 9.078,6.215 14.968,6.215 v 0 c 5.814,0 10.69,-2.037 14.91,-6.225 v 0 c 4.219,-4.176 6.269,-9.061 6.269,-14.932 v 0 -1.693 c 6.696,0.809 13.371,1.537 20.031,2.199 v 0 c 0.115,5.655 2.127,10.386 6.176,14.436 v 0 c 4.174,4.181 9.055,6.215 14.925,6.215 v 0 c 5.867,0 10.749,-2.034 14.922,-6.215 v 0 c 3.23,-3.235 5.16,-6.905 5.873,-11.12 v 0 c 6.703,0.395 13.391,0.712 20.07,0.982 v 0 c -1.006,9.273 -4.957,17.424 -11.8,24.274 v 0 c -8.011,8.019 -17.791,12.086 -29.065,12.086 v 0 c -12.715,0 -23.191,-4.804 -31.185,-14.284" />
    </clipPath>
    <linearGradient
       id="linearGradient3889"
       spreadMethod="pad"
       gradientTransform="matrix(-1.53e-5,387.98639,387.98639,1.53e-5,171.73291,92.4375)"
       gradientUnits="userSpaceOnUse"
       y2="0"
       x2="1"
       y1="0"
       x1="0">
      <stop
         id="stop3883"
         offset="0"
         style="stop-opacity:1;stop-color:#ffffff" />
      <stop
         id="stop3885"
         offset="0.41503764"
         style="stop-opacity:0;stop-color:#ffffff" />
      <stop
         id="stop3887"
         offset="1"
         style="stop-opacity:0;stop-color:#ffffff" />
    </linearGradient>
    <mask
       id="mask3891"
       height="1"
       width="1"
       y="0"
       x="0"
       maskUnits="userSpaceOnUse">
      <g
         id="g3901">
        <g
           id="g3899">
          <g
             id="g3897">
            <g
               id="g3895">
              <path
                 inkscape:connector-curvature="0"
                 id="path3893"
                 style="fill:url(#linearGradient3889);stroke:none"
                 d="M -32768,32767 H 32767 V -32767 H -32768 Z" />
            </g>
          </g>
        </g>
      </g>
    </mask>
    <linearGradient
       id="linearGradient3913"
       spreadMethod="pad"
       gradientTransform="matrix(-1.53e-5,387.98639,387.98639,1.53e-5,171.73291,92.4375)"
       gradientUnits="userSpaceOnUse"
       y2="0"
       x2="1"
       y1="0"
       x1="0">
      <stop
         id="stop3907"
         offset="0"
         style="stop-opacity:1;stop-color:#ffffff" />
      <stop
         id="stop3909"
         offset="0.41503764"
         style="stop-opacity:1;stop-color:#ffffff" />
      <stop
         id="stop3911"
         offset="1"
         style="stop-opacity:1;stop-color:#ffffff" />
    </linearGradient>
    <clipPath
       id="clipPath3923"
       clipPathUnits="userSpaceOnUse">
      <path
         inkscape:connector-curvature="0"
         id="path3921"
         d="M 0,595.28 H 841.89 V 0 H 0 Z" />
    </clipPath>
    <clipPath
       id="clipPath3935"
       clipPathUnits="userSpaceOnUse">
      <path
         inkscape:connector-curvature="0"
         id="path3933"
         d="m 254.734,363.721 v -21.193 -14.782 c 6.677,0.206 13.348,0.364 20.01,0.46 v 0 25.551 c 0,6.426 -3.556,9.964 -10.006,9.964 v 0 z" />
    </clipPath>
    <linearGradient
       id="linearGradient3951"
       spreadMethod="pad"
       gradientTransform="matrix(-1.53e-5,387.51462,387.51462,1.53e-5,264.73877,92.723633)"
       gradientUnits="userSpaceOnUse"
       y2="0"
       x2="1"
       y1="0"
       x1="0">
      <stop
         id="stop3945"
         offset="0"
         style="stop-opacity:1;stop-color:#ffffff" />
      <stop
         id="stop3947"
         offset="0.41503764"
         style="stop-opacity:0;stop-color:#ffffff" />
      <stop
         id="stop3949"
         offset="1"
         style="stop-opacity:0;stop-color:#ffffff" />
    </linearGradient>
    <mask
       id="mask3953"
       height="1"
       width="1"
       y="0"
       x="0"
       maskUnits="userSpaceOnUse">
      <g
         id="g3963">
        <g
           id="g3961">
          <g
             id="g3959">
            <g
               id="g3957">
              <path
                 inkscape:connector-curvature="0"
                 id="path3955"
                 style="fill:url(#linearGradient3951);stroke:none"
                 d="M -32768,32767 H 32767 V -32767 H -32768 Z" />
            </g>
          </g>
        </g>
      </g>
    </mask>
    <linearGradient
       id="linearGradient3975"
       spreadMethod="pad"
       gradientTransform="matrix(-1.53e-5,387.51462,387.51462,1.53e-5,264.73877,92.723633)"
       gradientUnits="userSpaceOnUse"
       y2="0"
       x2="1"
       y1="0"
       x1="0">
      <stop
         id="stop3969"
         offset="0"
         style="stop-opacity:1;stop-color:#ffffff" />
      <stop
         id="stop3971"
         offset="0.41503764"
         style="stop-opacity:1;stop-color:#ffffff" />
      <stop
         id="stop3973"
         offset="1"
         style="stop-opacity:1;stop-color:#ffffff" />
    </linearGradient>
    <clipPath
       id="clipPath3985"
       clipPathUnits="userSpaceOnUse">
      <path
         inkscape:connector-curvature="0"
         id="path3983"
         d="M 0,595.28 H 841.89 V 0 H 0 Z" />
    </clipPath>
    <clipPath
       id="clipPath3997"
       clipPathUnits="userSpaceOnUse">
      <path
         inkscape:connector-curvature="0"
         id="path3995"
         d="m 254.734,395.381 v -20.802 -0.305 h 10.004 c 6.45,0 10.006,3.577 10.006,10.066 v 0 1.075 c 0,6.426 -3.556,9.966 -10.006,9.966 v 0 z" />
    </clipPath>
    <linearGradient
       id="linearGradient4013"
       spreadMethod="pad"
       gradientTransform="matrix(-1.53e-5,227.35017,227.35017,1.53e-5,264.73877,236.38965)"
       gradientUnits="userSpaceOnUse"
       y2="0"
       x2="1"
       y1="0"
       x1="0">
      <stop
         id="stop4007"
         offset="0"
         style="stop-opacity:1;stop-color:#ffffff" />
      <stop
         id="stop4009"
         offset="0.41503764"
         style="stop-opacity:0;stop-color:#ffffff" />
      <stop
         id="stop4011"
         offset="1"
         style="stop-opacity:0;stop-color:#ffffff" />
    </linearGradient>
    <mask
       id="mask4015"
       height="1"
       width="1"
       y="0"
       x="0"
       maskUnits="userSpaceOnUse">
      <g
         id="g4025">
        <g
           id="g4023">
          <g
             id="g4021">
            <g
               id="g4019">
              <path
                 inkscape:connector-curvature="0"
                 id="path4017"
                 style="fill:url(#linearGradient4013);stroke:none"
                 d="M -32768,32767 H 32767 V -32767 H -32768 Z" />
            </g>
          </g>
        </g>
      </g>
    </mask>
    <linearGradient
       id="linearGradient4037"
       spreadMethod="pad"
       gradientTransform="matrix(-1.53e-5,227.35017,227.35017,1.53e-5,264.73877,236.38965)"
       gradientUnits="userSpaceOnUse"
       y2="0"
       x2="1"
       y1="0"
       x1="0">
      <stop
         id="stop4031"
         offset="0"
         style="stop-opacity:1;stop-color:#ffffff" />
      <stop
         id="stop4033"
         offset="0.41503764"
         style="stop-opacity:1;stop-color:#ffffff" />
      <stop
         id="stop4035"
         offset="1"
         style="stop-opacity:1;stop-color:#ffffff" />
    </linearGradient>
    <clipPath
       id="clipPath4047"
       clipPathUnits="userSpaceOnUse">
      <path
         inkscape:connector-curvature="0"
         id="path4045"
         d="m 285.297,328.273 c 6.672,-0.058 13.342,-0.154 20.006,-0.305 v 0 25.789 c 0,6.426 -3.534,9.964 -9.951,9.964 v 0 l -10.055,0.017 z" />
    </clipPath>
    <linearGradient
       id="linearGradient4063"
       spreadMethod="pad"
       gradientTransform="matrix(-1.53e-5,387.69519,387.69519,1.53e-5,295.30029,92.613281)"
       gradientUnits="userSpaceOnUse"
       y2="0"
       x2="1"
       y1="0"
       x1="0">
      <stop
         id="stop4057"
         offset="0"
         style="stop-opacity:1;stop-color:#ffffff" />
      <stop
         id="stop4059"
         offset="0.41503764"
         style="stop-opacity:0;stop-color:#ffffff" />
      <stop
         id="stop4061"
         offset="1"
         style="stop-opacity:0;stop-color:#ffffff" />
    </linearGradient>
    <mask
       id="mask4065"
       height="1"
       width="1"
       y="0"
       x="0"
       maskUnits="userSpaceOnUse">
      <g
         id="g4075">
        <g
           id="g4073">
          <g
             id="g4071">
            <g
               id="g4069">
              <path
                 inkscape:connector-curvature="0"
                 id="path4067"
                 style="fill:url(#linearGradient4063);stroke:none"
                 d="M -32768,32767 H 32767 V -32767 H -32768 Z" />
            </g>
          </g>
        </g>
      </g>
    </mask>
    <linearGradient
       id="linearGradient4087"
       spreadMethod="pad"
       gradientTransform="matrix(-1.53e-5,387.69519,387.69519,1.53e-5,295.30029,92.613281)"
       gradientUnits="userSpaceOnUse"
       y2="0"
       x2="1"
       y1="0"
       x1="0">
      <stop
         id="stop4081"
         offset="0"
         style="stop-opacity:1;stop-color:#ffffff" />
      <stop
         id="stop4083"
         offset="0.41503764"
         style="stop-opacity:1;stop-color:#ffffff" />
      <stop
         id="stop4085"
         offset="1"
         style="stop-opacity:1;stop-color:#ffffff" />
    </linearGradient>
    <clipPath
       id="clipPath4097"
       clipPathUnits="userSpaceOnUse">
      <path
         inkscape:connector-curvature="0"
         id="path4095"
         d="M 0,595.28 H 841.89 V 0 H 0 Z" />
    </clipPath>
    <clipPath
       id="clipPath4109"
       clipPathUnits="userSpaceOnUse">
      <path
         inkscape:connector-curvature="0"
         id="path4107"
         d="M 585.108,410.441 V 389.205 376.6 304.524 c 6.642,-0.508 13.312,-1 20.008,-1.474 v 0 40.664 h 13.296 c 6.488,0 10.062,3.568 10.062,10.053 v 0 c 0,6.417 -3.574,9.954 -10.062,9.954 v 0 h -13.296 v 36.659 c 0,6.49 -3.551,10.061 -10.002,10.061 v 0 z" />
    </clipPath>
    <linearGradient
       id="linearGradient4125"
       spreadMethod="pad"
       gradientTransform="matrix(-1.53e-5,387.96933,387.96933,1.53e-5,606.79102,92.449219)"
       gradientUnits="userSpaceOnUse"
       y2="0"
       x2="1"
       y1="0"
       x1="0">
      <stop
         id="stop4119"
         offset="0"
         style="stop-opacity:1;stop-color:#ffffff" />
      <stop
         id="stop4121"
         offset="0.41503764"
         style="stop-opacity:0;stop-color:#ffffff" />
      <stop
         id="stop4123"
         offset="1"
         style="stop-opacity:0;stop-color:#ffffff" />
    </linearGradient>
    <mask
       id="mask4127"
       height="1"
       width="1"
       y="0"
       x="0"
       maskUnits="userSpaceOnUse">
      <g
         id="g4137">
        <g
           id="g4135">
          <g
             id="g4133">
            <g
               id="g4131">
              <path
                 inkscape:connector-curvature="0"
                 id="path4129"
                 style="fill:url(#linearGradient4125);stroke:none"
                 d="M -32768,32767 H 32767 V -32767 H -32768 Z" />
            </g>
          </g>
        </g>
      </g>
    </mask>
    <linearGradient
       id="linearGradient4149"
       spreadMethod="pad"
       gradientTransform="matrix(-1.53e-5,387.96933,387.96933,1.53e-5,606.79102,92.449219)"
       gradientUnits="userSpaceOnUse"
       y2="0"
       x2="1"
       y1="0"
       x1="0">
      <stop
         id="stop4143"
         offset="0"
         style="stop-opacity:1;stop-color:#ffffff" />
      <stop
         id="stop4145"
         offset="0.41503764"
         style="stop-opacity:1;stop-color:#ffffff" />
      <stop
         id="stop4147"
         offset="1"
         style="stop-opacity:1;stop-color:#ffffff" />
    </linearGradient>
    <clipPath
       id="clipPath4159"
       clipPathUnits="userSpaceOnUse">
      <path
         inkscape:connector-curvature="0"
         id="path4157"
         d="M 0,595.28 H 841.89 V 0 H 0 Z" />
    </clipPath>
    <clipPath
       id="clipPath4171"
       clipPathUnits="userSpaceOnUse">
      <path
         inkscape:connector-curvature="0"
         id="path4169"
         d="m 483.892,347.084 c -0.321,-0.322 -0.629,-0.652 -0.941,-0.976 v 0 c 4.722,-5.701 8.238,-11.93 10.555,-18.644 v 0 c 1.302,1.89 2.781,3.706 4.487,5.423 v 0 c 7.247,7.284 15.733,10.827 25.944,10.827 v 0 c 10.165,0 18.576,-3.438 25.625,-10.494 v 0 l -38.85,-22.42 c 11.483,-1.037 23.038,-2.063 34.661,-3.059 v 0 l 24.073,13.913 c 3.268,1.827 4.996,4.69 4.996,8.282 v 0 c 0,6.291 -4.169,12.624 -12.743,19.358 v 0 c -6.527,5.136 -13.31,8.938 -20.162,11.295 v 0 c -6.068,2.078 -11.972,3.132 -17.544,3.132 v 0 c -15.552,0 -29.046,-5.597 -40.101,-16.637" />
    </clipPath>
    <linearGradient
       id="linearGradient4187"
       spreadMethod="pad"
       gradientTransform="matrix(-1.53e-5,387.97766,387.97766,1.53e-5,528.69727,92.444336)"
       gradientUnits="userSpaceOnUse"
       y2="0"
       x2="1"
       y1="0"
       x1="0">
      <stop
         id="stop4181"
         offset="0"
         style="stop-opacity:1;stop-color:#ffffff" />
      <stop
         id="stop4183"
         offset="0.41503764"
         style="stop-opacity:0;stop-color:#ffffff" />
      <stop
         id="stop4185"
         offset="1"
         style="stop-opacity:0;stop-color:#ffffff" />
    </linearGradient>
    <mask
       id="mask4189"
       height="1"
       width="1"
       y="0"
       x="0"
       maskUnits="userSpaceOnUse">
      <g
         id="g4199">
        <g
           id="g4197">
          <g
             id="g4195">
            <g
               id="g4193">
              <path
                 inkscape:connector-curvature="0"
                 id="path4191"
                 style="fill:url(#linearGradient4187);stroke:none"
                 d="M -32768,32767 H 32767 V -32767 H -32768 Z" />
            </g>
          </g>
        </g>
      </g>
    </mask>
    <linearGradient
       id="linearGradient4211"
       spreadMethod="pad"
       gradientTransform="matrix(-1.53e-5,387.97766,387.97766,1.53e-5,528.69727,92.444336)"
       gradientUnits="userSpaceOnUse"
       y2="0"
       x2="1"
       y1="0"
       x1="0">
      <stop
         id="stop4205"
         offset="0"
         style="stop-opacity:1;stop-color:#ffffff" />
      <stop
         id="stop4207"
         offset="0.41503764"
         style="stop-opacity:1;stop-color:#ffffff" />
      <stop
         id="stop4209"
         offset="1"
         style="stop-opacity:1;stop-color:#ffffff" />
    </linearGradient>
    <clipPath
       id="clipPath4221"
       clipPathUnits="userSpaceOnUse">
      <path
         inkscape:connector-curvature="0"
         id="path4219"
         d="M 0,595.28 H 841.89 V 0 H 0 Z" />
    </clipPath>
    <clipPath
       id="clipPath4233"
       clipPathUnits="userSpaceOnUse">
      <path
         inkscape:connector-curvature="0"
         id="path4231"
         d="m 378.111,410.441 v -85.645 c 7.903,-0.495 15.814,-1.025 23.737,-1.596 v 0 c 1.743,3.45 4.073,6.676 7.076,9.684 v 0 c 7.282,7.287 15.74,10.83 25.857,10.83 v 0 c 10.191,0 18.681,-3.543 25.961,-10.827 v 0 c 4.564,-4.573 7.651,-9.612 9.321,-15.239 v 0 c 6.938,-0.614 13.891,-1.24 20.863,-1.874 v 0 c -1.737,11.898 -7.092,22.401 -15.993,31.307 v 0 c -11.027,11.039 -24.535,16.64 -40.152,16.64 v 0 c -14.001,0 -26.308,-4.527 -36.664,-13.47 v 0 50.118 c 0,6.495 -3.535,10.072 -9.954,10.072 v 0 z" />
    </clipPath>
    <linearGradient
       id="linearGradient4249"
       spreadMethod="pad"
       gradientTransform="matrix(-1.53e-5,387.97089,387.97089,1.53e-5,434.51758,92.447266)"
       gradientUnits="userSpaceOnUse"
       y2="0"
       x2="1"
       y1="0"
       x1="0">
      <stop
         id="stop4243"
         offset="0"
         style="stop-opacity:1;stop-color:#ffffff" />
      <stop
         id="stop4245"
         offset="0.41503764"
         style="stop-opacity:0;stop-color:#ffffff" />
      <stop
         id="stop4247"
         offset="1"
         style="stop-opacity:0;stop-color:#ffffff" />
    </linearGradient>
    <mask
       id="mask4251"
       height="1"
       width="1"
       y="0"
       x="0"
       maskUnits="userSpaceOnUse">
      <g
         id="g4261">
        <g
           id="g4259">
          <g
             id="g4257">
            <g
               id="g4255">
              <path
                 inkscape:connector-curvature="0"
                 id="path4253"
                 style="fill:url(#linearGradient4249);stroke:none"
                 d="M -32768,32767 H 32767 V -32767 H -32768 Z" />
            </g>
          </g>
        </g>
      </g>
    </mask>
    <linearGradient
       id="linearGradient4273"
       spreadMethod="pad"
       gradientTransform="matrix(-1.53e-5,387.97089,387.97089,1.53e-5,434.51758,92.447266)"
       gradientUnits="userSpaceOnUse"
       y2="0"
       x2="1"
       y1="0"
       x1="0">
      <stop
         id="stop4267"
         offset="0"
         style="stop-opacity:1;stop-color:#ffffff" />
      <stop
         id="stop4269"
         offset="0.41503764"
         style="stop-opacity:1;stop-color:#ffffff" />
      <stop
         id="stop4271"
         offset="1"
         style="stop-opacity:1;stop-color:#ffffff" />
    </linearGradient>
    <clipPath
       id="clipPath3733-2"
       clipPathUnits="userSpaceOnUse">
      <path
         inkscape:connector-curvature="0"
         id="path3731-4"
         d="M 0,595.28 H 841.89 V 0 H 0 Z" />
    </clipPath>
    <clipPath
       id="clipPath3749-4"
       clipPathUnits="userSpaceOnUse">
      <path
         inkscape:connector-curvature="0"
         id="path3747-1"
         d="M 0,595.28 H 841.89 V 0 H 0 Z" />
    </clipPath>
    <clipPath
       id="clipPath3861-2"
       clipPathUnits="userSpaceOnUse">
      <path
         inkscape:connector-curvature="0"
         id="path3859-0"
         d="M 0,595.28 H 841.89 V 0 H 0 Z" />
    </clipPath>
    <clipPath
       id="clipPath3923-0"
       clipPathUnits="userSpaceOnUse">
      <path
         inkscape:connector-curvature="0"
         id="path3921-3"
         d="M 0,595.28 H 841.89 V 0 H 0 Z" />
    </clipPath>
    <clipPath
       id="clipPath4097-2"
       clipPathUnits="userSpaceOnUse">
      <path
         inkscape:connector-curvature="0"
         id="path4095-1"
         d="M 0,595.28 H 841.89 V 0 H 0 Z" />
    </clipPath>
    <clipPath
       id="clipPath4159-9"
       clipPathUnits="userSpaceOnUse">
      <path
         inkscape:connector-curvature="0"
         id="path4157-9"
         d="M 0,595.28 H 841.89 V 0 H 0 Z" />
    </clipPath>
    <clipPath
       id="clipPath4221-1"
       clipPathUnits="userSpaceOnUse">
      <path
         inkscape:connector-curvature="0"
         id="path4219-0"
         d="M 0,595.28 H 841.89 V 0 H 0 Z" />
    </clipPath>
    <clipPath
       id="clipPath3733-2-8"
       clipPathUnits="userSpaceOnUse">
      <path
         inkscape:connector-curvature="0"
         id="path3731-4-8"
         d="M 0,595.28 H 841.89 V 0 H 0 Z" />
    </clipPath>
    <clipPath
       id="clipPath3749-4-2"
       clipPathUnits="userSpaceOnUse">
      <path
         inkscape:connector-curvature="0"
         id="path3747-1-0"
         d="M 0,595.28 H 841.89 V 0 H 0 Z" />
    </clipPath>
    <clipPath
       id="clipPath3861-2-3"
       clipPathUnits="userSpaceOnUse">
      <path
         inkscape:connector-curvature="0"
         id="path3859-0-6"
         d="M 0,595.28 H 841.89 V 0 H 0 Z" />
    </clipPath>
    <clipPath
       id="clipPath3923-0-7"
       clipPathUnits="userSpaceOnUse">
      <path
         inkscape:connector-curvature="0"
         id="path3921-3-8"
         d="M 0,595.28 H 841.89 V 0 H 0 Z" />
    </clipPath>
    <clipPath
       id="clipPath4097-2-8"
       clipPathUnits="userSpaceOnUse">
      <path
         inkscape:connector-curvature="0"
         id="path4095-1-7"
         d="M 0,595.28 H 841.89 V 0 H 0 Z" />
    </clipPath>
    <clipPath
       id="clipPath4159-9-7"
       clipPathUnits="userSpaceOnUse">
      <path
         inkscape:connector-curvature="0"
         id="path4157-9-8"
         d="M 0,595.28 H 841.89 V 0 H 0 Z" />
    </clipPath>
    <clipPath
       id="clipPath4221-1-7"
       clipPathUnits="userSpaceOnUse">
      <path
         inkscape:connector-curvature="0"
         id="path4219-0-1"
         d="M 0,595.28 H 841.89 V 0 H 0 Z" />
    </clipPath>
  </defs>
  <sodipodi:namedview
     id="base"
     pagecolor="#ffffff"
     bordercolor="#666666"
     borderopacity="1.0"
     inkscape:pageopacity="0.0"
     inkscape:pageshadow="2"
     inkscape:zoom="0.70710678"
     inkscape:cx="494.96351"
     inkscape:cy="70.09378"
     inkscape:document-units="mm"
     inkscape:current-layer="layer1"
     showgrid="false"
     inkscape:window-width="1920"
     inkscape:window-height="1017"
     inkscape:window-x="-8"
     inkscape:window-y="-8"
     inkscape:window-maximized="1" />
  <metadata
     id="metadata5">
    <rdf:RDF>
      <cc:Work
         rdf:about="">
        <dc:format>image/svg+xml</dc:format>
        <dc:type
           rdf:resource="http://purl.org/dc/dcmitype/StillImage" />
        <dc:title></dc:title>
      </cc:Work>
    </rdf:RDF>
  </metadata>
  <g
     inkscape:label="Layer 1"
     inkscape:groupmode="layer"
     id="layer1"
     transform="translate(0,-222.945)">
    <g
       transform="matrix(0.46203227,0,0,-0.46203227,-45.98577,412.57736)"
       inkscape:label="logo"
       id="g3725-2-1">
      <g
         id="g3727-1-8"
         style="fill:#7a0ecc;fill-opacity:1">
        <g
           clip-path="url(#clipPath3733-2-8)"
           id="g3729-4-3"
           style="fill:#7a0ecc;fill-opacity:1">
          <g
             transform="translate(357.623,363.7217)"
             id="g3735-2-6"
             style="fill:#7a0ecc;fill-opacity:1">
            <path
               inkscape:connector-curvature="0"
               id="path3737-6-1"
               style="fill:#7a0ecc;fill-opacity:1;fill-rule:nonzero;stroke:none"
               d="m 0,0 -10.071,0.05 v -72.446 c 0,-5.874 -2.031,-10.765 -6.199,-14.951 -4.176,-4.174 -9.059,-6.209 -14.924,-6.209 H -52.32 v 83.591 c 0,6.426 -3.534,9.965 -9.951,9.965 l -10.055,0.016 v -113.577 h 41.132 c 11.281,0 21.062,4.062 29.063,12.074 8.006,8.014 12.066,17.804 12.066,29.096 V -9.965 C 9.935,-3.539 6.402,0 0,0" />
          </g>
        </g>
      </g>
      <g
         id="g3743-0-1"
         style="fill:#7a0ecc;fill-opacity:1">
        <g
           clip-path="url(#clipPath3749-4-2)"
           id="g3745-3-5"
           style="fill:#7a0ecc;fill-opacity:1">
          <g
             transform="translate(685.6699,343.7139)"
             id="g3751-9-1"
             style="fill:#7a0ecc;fill-opacity:1">
            <path
               inkscape:connector-curvature="0"
               id="path3753-8-3"
               style="fill:#7a0ecc;fill-opacity:1;fill-rule:nonzero;stroke:none"
               d="m 0,0 c 10.117,0 18.576,-3.543 25.857,-10.83 7.169,-7.178 10.808,-15.924 10.808,-25.994 V -73.548 H 0 c -10.19,0 -18.684,3.543 -25.961,10.829 -7.169,7.186 -10.808,15.898 -10.808,25.895 0,10.07 3.639,18.816 10.805,25.994 C -18.681,-3.543 -10.19,0 0,0 M 40.054,3.373 C 29.021,14.413 15.543,20.008 0,20.008 c -15.616,0 -29.127,-5.602 -40.151,-16.641 -11.031,-11.033 -16.626,-24.555 -16.626,-40.191 0,-15.562 5.595,-29.052 16.623,-40.088 C -29.127,-87.951 -15.616,-93.553 0,-93.553 h 56.67 v 56.743 c 0,15.632 -5.592,29.154 -16.616,40.183" />
          </g>
        </g>
      </g>
      <g
         id="g3855-9-3"
         style="fill:#7a0ecc;fill-opacity:1">
        <g
           clip-path="url(#clipPath3861-2-3)"
           id="g3857-0-6"
           style="fill:#7a0ecc;fill-opacity:1">
          <g
             transform="translate(232.1147,351.6357)"
             id="g3863-7-7"
             style="fill:#7a0ecc;fill-opacity:1">
            <path
               inkscape:connector-curvature="0"
               id="path3865-7-1"
               style="fill:#7a0ecc;fill-opacity:1;fill-rule:nonzero;stroke:none"
               d="m 0,0 c -8.01,8.019 -17.791,12.086 -29.064,12.086 -12.716,0 -23.192,-4.805 -31.186,-14.285 -7.988,9.48 -18.429,14.285 -31.078,14.285 -7.896,0 -15.164,-2.07 -21.648,-6.162 -1.216,4.006 -4.497,6.162 -9.537,6.162 h -10.051 v -21.344 -41.377 -50.84 h 10.005 c 6.451,0 10.001,3.578 10.001,10.068 v 62.329 c 0,5.877 2.032,10.762 6.214,14.941 4.182,4.182 9.078,6.215 14.969,6.215 5.814,0 10.69,-2.037 14.909,-6.224 4.219,-4.176 6.27,-9.062 6.27,-14.932 v -72.397 h 9.946 c 6.489,0 10.062,3.578 10.062,10.068 v 62.329 c 0,5.883 2.026,10.767 6.199,14.941 4.174,4.182 9.054,6.215 14.925,6.215 5.866,0 10.749,-2.033 14.921,-6.215 4.171,-4.179 6.201,-9.068 6.201,-14.941 v -72.397 h 9.956 c 6.483,0 10.052,3.578 10.052,10.068 v 62.32 C 12.066,-17.801 8.006,-8.012 0,0" />
          </g>
        </g>
      </g>
      <g
         id="g3917-2-5"
         style="fill:#7a0ecc;fill-opacity:1">
        <g
           clip-path="url(#clipPath3923-0-7)"
           id="g3919-5-8"
           style="fill:#7a0ecc;fill-opacity:1">
          <g
             transform="translate(264.7378,363.7217)"
             id="g3925-4-0"
             style="fill:#7a0ecc;fill-opacity:1">
            <path
               inkscape:connector-curvature="0"
               id="path3927-1-8"
               style="fill:#7a0ecc;fill-opacity:1;fill-rule:nonzero;stroke:none"
               d="m 0,0 h -10.004 v -21.193 -26.754 -65.614 H 0 c 6.45,0 10.006,3.578 10.006,10.068 V -9.965 C 10.006,-3.539 6.45,0 0,0" />
          </g>
        </g>
      </g>
      <g
         id="g4091-3-9"
         style="fill:#7a0ecc;fill-opacity:1">
        <g
           clip-path="url(#clipPath4097-2-8)"
           id="g4093-4-9"
           style="fill:#7a0ecc;fill-opacity:1">
          <g
             transform="translate(620.0137,277.8818)"
             id="g4099-7-8"
             style="fill:#7a0ecc;fill-opacity:1">
            <path
               inkscape:connector-curvature="0"
               id="path4101-6-5"
               style="fill:#7a0ecc;fill-opacity:1;fill-rule:nonzero;stroke:none"
               d="m 0,0 c -2.086,0 -4.787,-1.38 -8.493,-4.343 -2.839,-2.268 -6.404,-3.364 -6.404,-3.364 v 73.539 h 13.295 c 6.488,0 10.062,3.568 10.062,10.053 0,6.418 -3.574,9.955 -10.062,9.955 h -13.295 v 36.658 c 0,6.49 -3.552,10.062 -10.002,10.062 H -34.905 V 111.323 98.719 -27.721 h 17.776 c 6.17,0 11.623,1.16 16.213,3.448 6.222,3.117 9.376,7.83 9.376,14.002 C 8.46,-1.337 3.16,0 0,0" />
          </g>
        </g>
      </g>
      <g
         id="g4153-9-6"
         style="fill:#7a0ecc;fill-opacity:1">
        <g
           clip-path="url(#clipPath4159-9-7)"
           id="g4155-5-1"
           style="fill:#7a0ecc;fill-opacity:1">
          <g
             transform="translate(571.3623,290.8008)"
             id="g4161-2-9"
             style="fill:#7a0ecc;fill-opacity:1">
            <path
               inkscape:connector-curvature="0"
               id="path4163-6-1"
               style="fill:#7a0ecc;fill-opacity:1;fill-rule:nonzero;stroke:none"
               d="m 0,0 c -4.299,3.913 -10.595,4.182 -15.345,-2.065 -2.067,-2.719 -3.574,-4.774 -4.394,-5.999 -6.91,-8.457 -15.948,-12.571 -27.631,-12.571 -10.216,0 -18.616,3.416 -25.601,10.419 l 71.055,41.069 c 3.268,1.827 4.996,4.691 4.996,8.283 0,6.291 -4.169,12.623 -12.743,19.357 -6.527,5.136 -13.311,8.938 -20.162,11.295 -6.068,2.078 -11.972,3.133 -17.545,3.133 -15.552,0 -29.045,-5.598 -40.1,-16.638 -0.324,-0.322 -0.627,-0.654 -0.938,-0.981 4.713,-5.692 8.227,-11.911 10.546,-18.614 1.301,1.881 2.79,3.686 4.493,5.399 7.247,7.283 15.733,10.826 25.943,10.826 10.166,0 18.576,-3.437 25.625,-10.493 L -74.678,11.905 c -0.814,-13.166 -5.41,-24.88 -13.733,-34.928 0.314,-0.328 0.617,-0.658 0.938,-0.979 11.058,-11.039 24.551,-16.638 40.103,-16.638 9.842,0 19.458,2.602 28.581,7.735 9.16,5.156 16.107,12.11 20.685,20.755 0.873,1.833 1.298,3.477 1.298,5.033 C 3.194,-4.336 2.12,-1.941 0,0" />
          </g>
        </g>
      </g>
      <g
         id="g4215-8-6"
         style="fill:#7a0ecc;fill-opacity:1">
        <g
           clip-path="url(#clipPath4221-1-7)"
           id="g4217-1-8"
           style="fill:#7a0ecc;fill-opacity:1">
          <g
             transform="translate(460.7451,280.999)"
             id="g4223-3-9"
             style="fill:#7a0ecc;fill-opacity:1">
            <path
               inkscape:connector-curvature="0"
               id="path4225-1-6"
               style="fill:#7a0ecc;fill-opacity:1;fill-rule:nonzero;stroke:none"
               d="m 0,0 c -7.28,-7.29 -15.773,-10.833 -25.964,-10.833 l -36.664,0.009 v 36.816 c 0,10.135 3.536,18.607 10.807,25.893 7.281,7.287 15.74,10.83 25.857,10.83 10.191,0 18.681,-3.543 25.961,-10.826 C 7.269,44.599 10.802,36.127 10.802,25.992 10.802,15.925 7.167,7.175 0,0 m 14.188,66.082 c -11.027,11.039 -24.536,16.641 -40.152,16.641 -14.001,0 -26.308,-4.528 -36.664,-13.471 v 50.117 c 0,6.496 -3.535,10.073 -9.955,10.073 h -10.051 v -160.28 h 56.67 c 15.616,0 29.125,5.602 40.152,16.641 11.03,11.03 16.625,24.551 16.625,40.189 0,15.561 -5.595,29.051 -16.625,40.09" />
          </g>
        </g>
      </g>
    </g>
  </g>
</svg>
